<svg id="图层_1" data-name="图层 1" xmlns="http://www.w3.org/2000/svg" viewBox="0 0 160 110"><defs><style>.cls-1{fill:#cc8162;}.cls-2{fill:#fff;}</style></defs><title>icon</title><g id="组_6138" data-name="组 6138"><path class="cls-1" d="M139,77.36a23.41,23.41,0,0,0-4.27-4.9A109.61,109.61,0,0,0,118.29,60.7a38.75,38.75,0,0,0,.43-5.7A37.21,37.21,0,0,0,81.48,17.76a37.68,37.68,0,0,0-8.54,1A36.95,36.95,0,0,0,58.19,26a36.81,36.81,0,0,0-5.34,5.25c-5.35-1.68-10.22-3-14.5-3.91a56.64,56.64,0,0,0-11.13-1.44,14,14,0,0,0-4.34.56,4,4,0,0,0-2.6,2.09c-.56,1.26-.27,2.81.86,4.6A26.45,26.45,0,0,0,26,38.38,123.12,123.12,0,0,0,44.45,51.12a36,36,0,0,0-.2,3.88,37.22,37.22,0,0,0,59.83,29.6,37.9,37.9,0,0,0,5.29-4.92c10.07,3,18.16,4.66,23.41,4.66a14.1,14.1,0,0,0,4.35-.56,4,4,0,0,0,2.59-2.09C140.26,80.5,140,79,139,77.36Zm-2.82,2.76a8.62,8.62,0,0,1-3.41.47h-.37a65.65,65.65,0,0,1-13.49-2.16c-2.23-.55-4.59-1.19-7.05-1.91a37.12,37.12,0,0,0,5.59-11.92c2.11,1.3,4.09,2.58,5.91,3.82A65.85,65.85,0,0,1,134,77,9.29,9.29,0,0,1,136.2,80.12ZM50.47,34.38a36.91,36.91,0,0,0-5.39,12.76c-3.08-1.83-5.92-3.63-8.46-5.37A65.32,65.32,0,0,1,26,33.19a9.29,9.29,0,0,1-2.18-3.12,8.62,8.62,0,0,1,3.41-.47h.38a65.57,65.57,0,0,1,13.48,2.16C44,32.48,47.14,33.36,50.47,34.38Z"/><g id="组_6107" data-name="组 6107"><path class="cls-2" d="M68.48,72.42A5.42,5.42,0,1,1,73.9,67,5.42,5.42,0,0,1,68.48,72.42Zm0-7A1.55,1.55,0,1,0,70,67,1.56,1.56,0,0,0,68.48,65.45Z"/><path class="cls-2" d="M68.48,48.05a5.42,5.42,0,1,1,5.42-5.42A5.43,5.43,0,0,1,68.48,48.05Zm0-7A1.55,1.55,0,1,0,70,42.63,1.56,1.56,0,0,0,68.48,41.08Z"/><path class="cls-2" d="M68.48,60.24a5.42,5.42,0,1,1,5.42-5.42A5.42,5.42,0,0,1,68.48,60.24Zm0-7A1.55,1.55,0,1,0,70,54.82,1.55,1.55,0,0,0,68.48,53.27Z"/><path class="cls-2" d="M98.07,56.76H78.92a1.94,1.94,0,0,1,0-3.88H98.07a1.94,1.94,0,0,1,0,3.88Z"/><path class="cls-2" d="M98.07,68.94H78.92a1.94,1.94,0,0,1,0-3.87H98.07a1.94,1.94,0,0,1,0,3.87Z"/><path class="cls-2" d="M98.07,44.57H78.92a1.94,1.94,0,0,1,0-3.87H98.07a1.94,1.94,0,0,1,0,3.87Z"/></g></g></svg>