<svg id="图层_1" data-name="图层 1" xmlns="http://www.w3.org/2000/svg" viewBox="0 0 160 110"><defs><style>.cls-1{fill:#05b3cc;}.cls-2{fill:#fff;}</style></defs><title>icon</title><g id="组_6137" data-name="组 6137"><path class="cls-1" d="M139,77.34a23,23,0,0,0-4.28-4.91A108.61,108.61,0,0,0,118.3,60.68,37.26,37.26,0,0,0,72.94,18.74a36.46,36.46,0,0,0-7.84,2.8,36.83,36.83,0,0,0-6.92,4.4,38.18,38.18,0,0,0-5.33,5.23c-5.33-1.68-10.2-3-14.47-3.89a56,56,0,0,0-11.13-1.45,13.77,13.77,0,0,0-4.35.57,4.09,4.09,0,0,0-2.62,2.1c-.57,1.27-.27,2.83.87,4.63A26.43,26.43,0,0,0,26,38.42,124.53,124.53,0,0,0,44.43,51.14a38.23,38.23,0,0,0-.2,3.86,37.25,37.25,0,0,0,65.13,24.7c10.06,3,18.14,4.66,23.4,4.66a14.07,14.07,0,0,0,4.34-.56,4.1,4.1,0,0,0,2.62-2.11C140.26,80.49,140,79,139,77.34ZM47.18,40.45a37.7,37.7,0,0,0-2.11,6.64c-3-1.82-5.88-3.61-8.41-5.34A65.14,65.14,0,0,1,26,33.18a9.4,9.4,0,0,1-2.17-3.08,9.06,9.06,0,0,1,3.37-.45h.37a65.57,65.57,0,0,1,13.48,2.16c2.89.71,6,1.58,9.34,2.6A37.79,37.79,0,0,0,47.18,40.45Zm85.58,40.09h-.37a65.57,65.57,0,0,1-13.48-2.16c-2.21-.54-4.56-1.18-7-1.89a37.78,37.78,0,0,0,3.27-5.59,36.65,36.65,0,0,0,2.29-6.26c2.09,1.29,4.06,2.57,5.87,3.8A65.14,65.14,0,0,1,134,77a9.4,9.4,0,0,1,2.17,3.08A8.84,8.84,0,0,1,132.76,80.54Z"/><g id="组_6094" data-name="组 6094"><path id="路径_3324" data-name="路径 3324" class="cls-2" d="M80.84,71.39c-8.72,0-17.11-4.48-23.66-12.63A6.05,6.05,0,0,1,57,51.63l.06-.08c6.59-8.33,15.07-12.92,23.9-12.94s17.21,4.5,23.77,12.7a5.35,5.35,0,0,1,.51,6.59C98.55,66.54,90,71.29,81.12,71.39ZM59.69,53.92a2.09,2.09,0,0,0,.12,2.44c5.91,7.37,13.41,11.38,21.27,11.32s15.48-4.36,21.4-12a1.32,1.32,0,0,0-.21-1.69l-.13-.15c-5.9-7.42-13.47-11.57-21.21-11.48S65.61,46.46,59.69,53.92Z"/><path id="路径_3325" data-name="路径 3325" class="cls-2" d="M81,45.33A9.67,9.67,0,1,0,90.68,55,9.67,9.67,0,0,0,81,45.33Zm1.27,7.09a3.75,3.75,0,0,0-3.74,3.74,1.89,1.89,0,1,1-3.77,0,7.51,7.51,0,0,1,7.51-7.51,1.89,1.89,0,1,1,0,3.77Z"/></g></g></svg>