<svg id="图层_1" data-name="图层 1" xmlns="http://www.w3.org/2000/svg" viewBox="0 0 160 110"><defs><style>.cls-1{fill:#6556b2;}.cls-2{fill:#fff;}</style></defs><title>icon</title><g id="组_6134" data-name="组 6134"><path class="cls-1" d="M139,77.36a23.41,23.41,0,0,0-4.27-4.9A108.9,108.9,0,0,0,118.29,60.7a38.75,38.75,0,0,0,.43-5.7A37.21,37.21,0,0,0,81.48,17.76a37.68,37.68,0,0,0-8.54,1A36.95,36.95,0,0,0,58.19,26a36.81,36.81,0,0,0-5.34,5.25c-5.35-1.68-10.22-3-14.5-3.91a56.64,56.64,0,0,0-11.13-1.44,14,14,0,0,0-4.34.56,4,4,0,0,0-2.6,2.09c-.56,1.26-.27,2.81.86,4.6A26.45,26.45,0,0,0,26,38.38,123.12,123.12,0,0,0,44.45,51.12a36,36,0,0,0-.2,3.88,37.22,37.22,0,0,0,59.83,29.6,37.9,37.9,0,0,0,5.29-4.92c10.07,3,18.16,4.66,23.41,4.66a14.1,14.1,0,0,0,4.35-.56,4,4,0,0,0,2.59-2.09C140.26,80.5,140,79,139,77.36ZM47.19,40.46a37,37,0,0,0-2.11,6.68c-3.08-1.83-5.92-3.63-8.46-5.37A65.32,65.32,0,0,1,26,33.19a9.29,9.29,0,0,1-2.18-3.12,8.62,8.62,0,0,1,3.41-.47h.38a66.41,66.41,0,0,1,13.48,2.17c2.91.71,6.07,1.59,9.4,2.61A37.13,37.13,0,0,0,47.19,40.46Zm85.6,40.13h-.37a65.65,65.65,0,0,1-13.49-2.16c-2.23-.55-4.59-1.19-7.05-1.91a37.79,37.79,0,0,0,3.29-5.63,37,37,0,0,0,2.3-6.29c2.11,1.3,4.09,2.58,5.91,3.82A65.85,65.85,0,0,1,134,77a9.29,9.29,0,0,1,2.18,3.12A8.62,8.62,0,0,1,132.79,80.59Z"/><path id="路径_3330" data-name="路径 3330" class="cls-2" d="M64.52,71.37V69.91A17.84,17.84,0,0,1,70.4,56.68a10.66,10.66,0,0,1-2.48-2.79c-1.09-2.3-1-4.41.15-7.29h0l.05-.09h0c.17-.33.39-.74.67-1.25a6.21,6.21,0,0,1,1.08-1.41c.83-6.88,6.17-12,12.49-12a11.93,11.93,0,0,1,8.93,4.1,15,15,0,0,1,.56,18.93,17.85,17.85,0,0,1,8.34,15.1v1.47Zm32.67-2.92a14.92,14.92,0,0,0-8.3-11.94L87,55.58l1.54-1.45A11.63,11.63,0,0,0,92,45.68c0-6.06-4.34-11-9.67-11A8.88,8.88,0,0,0,76.42,37a11.1,11.1,0,0,0-3.23,5.18,6.11,6.11,0,0,1,.86-.07,5.93,5.93,0,0,1,2.24.45,2.69,2.69,0,0,1,1.82,3.25,4.32,4.32,0,0,1-.29,1,19.52,19.52,0,0,0-1,3v0l0,.16v0a.29.29,0,0,0,0,.09,3.19,3.19,0,0,0,1.07,1.46,17.6,17.6,0,0,0,2.71,2.16,5.77,5.77,0,0,1,2.47,6c-.2,1-.64,3.92-1.3,8.76Zm-18.5,0c.68-5.18,1.13-8.22,1.35-9.31a2.87,2.87,0,0,0-1.21-3,21.17,21.17,0,0,1-3-2.47,5.71,5.71,0,0,1-1.91-3.29A3.1,3.1,0,0,1,74,49a22.15,22.15,0,0,1,1.11-3.37h0a1,1,0,0,0,.06-.16,3,3,0,0,0-3,.55l-.84.71-.6,1.11c-.85,2.07-.9,3.36-.16,4.91h0a16.75,16.75,0,0,0,1.91,2l.23.22h0l1.36,1.26L75,57a3.61,3.61,0,0,1,.62.78,4.57,4.57,0,0,1,.43,3.58h0l-2,7.11Zm-7.72,0,2.24-7.89a1.74,1.74,0,0,0,0-1.27,1,1,0,0,0-.13-.16l-.49-.46a15,15,0,0,0-5,9.78Z"/></g></svg>