<svg id="图层_1" data-name="图层 1" xmlns="http://www.w3.org/2000/svg" viewBox="0 0 160 110"><defs><style>.cls-1{fill:#e0ac3e;}.cls-2{fill:#fff;}</style></defs><title>icon</title><g id="组_6136" data-name="组 6136"><path class="cls-1" d="M139,77.36a23.41,23.41,0,0,0-4.27-4.9A109.61,109.61,0,0,0,118.29,60.7a38.75,38.75,0,0,0,.43-5.7A37.21,37.21,0,0,0,81.48,17.76a37.68,37.68,0,0,0-8.54,1A36.95,36.95,0,0,0,58.19,26a36.81,36.81,0,0,0-5.34,5.25c-5.35-1.68-10.22-3-14.5-3.91a56.64,56.64,0,0,0-11.13-1.44,14,14,0,0,0-4.34.56,4,4,0,0,0-2.6,2.09c-.56,1.26-.27,2.81.86,4.6A26.45,26.45,0,0,0,26,38.38,123.12,123.12,0,0,0,44.45,51.12a36,36,0,0,0-.2,3.88,37.22,37.22,0,0,0,59.83,29.6,37.9,37.9,0,0,0,5.29-4.92c10.07,3,18.16,4.66,23.41,4.66a14,14,0,0,0,4.34-.56,4,4,0,0,0,2.6-2.09C140.26,80.5,140,79,139,77.36Zm-2.82,2.76a8.62,8.62,0,0,1-3.41.47h-.37a65.65,65.65,0,0,1-13.49-2.16c-2.23-.55-4.59-1.19-7.05-1.91a37.12,37.12,0,0,0,5.59-11.92c2.11,1.3,4.09,2.58,5.91,3.82A65.85,65.85,0,0,1,134,77,9.29,9.29,0,0,1,136.2,80.12ZM50.47,34.38a36.91,36.91,0,0,0-5.39,12.76c-3.08-1.83-5.92-3.63-8.46-5.37A65.32,65.32,0,0,1,26,33.19a9.29,9.29,0,0,1-2.18-3.12,8.62,8.62,0,0,1,3.41-.47h.38a66.41,66.41,0,0,1,13.48,2.17C44,32.48,47.14,33.36,50.47,34.38Z"/><g id="组_6095" data-name="组 6095"><path id="路径_3326" data-name="路径 3326" class="cls-2" d="M81.81,78.22a23.16,23.16,0,1,1,9-1.83A23.15,23.15,0,0,1,81.81,78.22Zm0-42.44A19.22,19.22,0,1,0,95.4,41.41a19.21,19.21,0,0,0-13.59-5.63Z"/><path id="路径_3327" data-name="路径 3327" class="cls-2" d="M90.28,67.23A1.92,1.92,0,0,1,89,66.7l-4.39-4.13a1.88,1.88,0,0,1-.25-2.46L87.94,55l-3.62-5.12a1.87,1.87,0,0,1,.25-2.45L89,43.29a2,2,0,0,1,1.86-.45,1.93,1.93,0,0,1,1.33,1.37A1.9,1.9,0,0,1,91.61,46l-3.2,3,3.45,4.86a1.89,1.89,0,0,1,0,2.18L88.41,61l3.2,3A1.88,1.88,0,0,1,92.06,66a1.93,1.93,0,0,1-1.78,1.19Zm-17,0A1.93,1.93,0,0,1,72,66.65,1.87,1.87,0,0,1,72,64l0,0,3.19-3-3.45-4.87a1.88,1.88,0,0,1,0-2.17l3.45-4.87L72,46a1.89,1.89,0,0,1-.09-2.65l0,0a1.93,1.93,0,0,1,2.71-.05l4.4,4.14a1.88,1.88,0,0,1,.24,2.45L75.68,55l3.62,5.12a1.89,1.89,0,0,1-.25,2.46l-4.39,4.13a1.91,1.91,0,0,1-1.32.52Z"/></g></g></svg>