<svg id="图层_1" data-name="图层 1" xmlns="http://www.w3.org/2000/svg" viewBox="0 0 160 110"><defs><style>.cls-1{fill:#8db455;}.cls-2{fill:#fff;}</style></defs><title>icon</title><g id="组_6140" data-name="组 6140"><path class="cls-1" d="M139,77.34a23,23,0,0,0-4.28-4.91A108.61,108.61,0,0,0,118.3,60.68,37.26,37.26,0,0,0,72.94,18.74a36.46,36.46,0,0,0-7.84,2.8,36.83,36.83,0,0,0-6.92,4.4,38.18,38.18,0,0,0-5.33,5.23c-5.33-1.68-10.2-3-14.47-3.89a56,56,0,0,0-11.13-1.45,13.77,13.77,0,0,0-4.35.57,4.09,4.09,0,0,0-2.62,2.1c-.57,1.27-.27,2.83.87,4.63A26.43,26.43,0,0,0,26,38.42,124.53,124.53,0,0,0,44.43,51.14a38.23,38.23,0,0,0-.2,3.86,37.25,37.25,0,0,0,65.13,24.7c10.06,3,18.14,4.66,23.4,4.66a14.07,14.07,0,0,0,4.34-.56,4.1,4.1,0,0,0,2.62-2.11C140.26,80.49,140,79,139,77.34Zm-2.89,2.75a8.84,8.84,0,0,1-3.37.45h-.37a65.57,65.57,0,0,1-13.48-2.16c-2.21-.54-4.56-1.18-7-1.9a36.79,36.79,0,0,0,3.27-5.59,36.24,36.24,0,0,0,2.29-6.25c2.09,1.29,4.06,2.57,5.87,3.8A65.14,65.14,0,0,1,134,77,9.4,9.4,0,0,1,136.13,80.09ZM50.43,34.41a37.23,37.23,0,0,0-5.36,12.68c-3-1.82-5.88-3.61-8.41-5.34A65.14,65.14,0,0,1,26,33.18a9.4,9.4,0,0,1-2.17-3.08,9.06,9.06,0,0,1,3.37-.45h.37a65.57,65.57,0,0,1,13.48,2.16C44,32.52,47.12,33.39,50.43,34.41Z"/><g id="组_6108" data-name="组 6108"><path class="cls-2" d="M82,76.23a21.17,21.17,0,1,1,21.17-21.17A21.18,21.18,0,0,1,82,76.23ZM82,37.9A17.17,17.17,0,1,0,99.18,55.06,17.18,17.18,0,0,0,82,37.9Z"/><path class="cls-2" d="M90.14,65.2a2,2,0,0,1-1.41-.59L80.6,56.49A2,2,0,0,1,80,55.07V43.56a2,2,0,0,1,4,0V54.24l7.54,7.54a2,2,0,0,1-1.42,3.42Z"/></g></g></svg>