<svg id="图层_1" data-name="图层 1" xmlns="http://www.w3.org/2000/svg" viewBox="0 0 160 110"><defs><style>.cls-1{fill:#4d8dce;}.cls-2{fill:#fff;}</style></defs><title>icon</title><g id="组_6139" data-name="组 6139"><path class="cls-1" d="M139,77.36a23.41,23.41,0,0,0-4.27-4.9A108.9,108.9,0,0,0,118.29,60.7a38.75,38.75,0,0,0,.43-5.7A37.21,37.21,0,0,0,81.48,17.76a37.68,37.68,0,0,0-8.54,1A36.95,36.95,0,0,0,58.19,26a36.81,36.81,0,0,0-5.34,5.25c-5.35-1.68-10.22-3-14.5-3.91a56.64,56.64,0,0,0-11.13-1.44,14,14,0,0,0-4.34.56,4,4,0,0,0-2.6,2.09c-.56,1.26-.27,2.81.86,4.6A26.45,26.45,0,0,0,26,38.38,123.12,123.12,0,0,0,44.45,51.12a36,36,0,0,0-.2,3.88,37.22,37.22,0,0,0,59.83,29.6,37.9,37.9,0,0,0,5.29-4.92c10.07,3,18.16,4.66,23.41,4.66a14,14,0,0,0,4.34-.56,4,4,0,0,0,2.6-2.09C140.26,80.5,140,79,139,77.36ZM47.19,40.46a37,37,0,0,0-2.11,6.68c-3.08-1.83-5.92-3.63-8.46-5.37A65.32,65.32,0,0,1,26,33.19a9.29,9.29,0,0,1-2.18-3.12,8.62,8.62,0,0,1,3.41-.47h.38a66.41,66.41,0,0,1,13.48,2.17c2.91.71,6.07,1.59,9.4,2.61A37.13,37.13,0,0,0,47.19,40.46Zm85.6,40.13h-.37a65.65,65.65,0,0,1-13.49-2.16c-2.23-.55-4.59-1.19-7.05-1.91a37.12,37.12,0,0,0,5.59-11.92c2.11,1.3,4.09,2.58,5.91,3.82A65.85,65.85,0,0,1,134,77a9.29,9.29,0,0,1,2.18,3.12A8.62,8.62,0,0,1,132.79,80.59Z"/><path class="cls-2" d="M99.08,43.48,82.65,33.82a1.91,1.91,0,0,0-2,0L64.25,43.48a2,2,0,0,0-1,1.67V64.49a2,2,0,0,0,1,1.67l16.44,9.66a1.9,1.9,0,0,0,1,.27,1.93,1.93,0,0,0,1-.27l16.43-9.66a2,2,0,0,0,1-1.67V45.15A2,2,0,0,0,99.08,43.48Zm-2.91,19.9-14.5,8.53-14.5-8.53V46.26l14.5-8.53,14.5,8.53Z"/><path class="cls-2" d="M75,48.34a1.94,1.94,0,0,0-2.06,3.29l6.83,4.27v7.62a1.94,1.94,0,1,0,3.87,0V55.89l6.82-4.26a1.94,1.94,0,1,0-2-3.29l-6.71,4.2Z"/></g></svg>